<?xml version="1.0" encoding="UTF-8"?>
<svg width="100%" height="100%" viewBox="0 0 288 58" version="1.1" xmlns="http://www.w3.org/2000/svg" xmlns:xlink="http://www.w3.org/1999/xlink">
    <!-- Generator: Sketch 54.1 (76490) - https://sketchapp.com -->
    <title>LOGO-colored</title>
    <desc>Created with Sketch.</desc>
    <g id="Logo-Styleguide" stroke="none" stroke-width="1" fill="none" fill-rule="evenodd">
        <g id="Usage" transform="translate(-176.000000, -269.000000)">
            <g id="Group-2" transform="translate(176.000000, 268.000000)">
                <g id="LOGO-colored">
                    <path d="M77.81836,33.52996 C80.446405,33.52996 82.334515,32.15215 82.589665,30.05992 L77.537695,30.05992 L77.537695,26.819515 L86.54449,26.819515 C86.64655,27.40636 86.69758,28.095265 86.69758,28.554535 C86.69758,34.474015 82.25797,37.30618 77.66527,37.30618 C72.35815,37.30618 68.27575,33.249295 68.27575,28.06975 C68.27575,22.890205 72.383665,18.83332 77.66527,18.83332 C81.95179,18.83332 85.498375,21.33379 86.314855,25.16104 L81.977305,25.16104 C81.44149,23.7322 80.038165,22.66057 77.81836,22.66057 C74.6545,22.66057 72.46021,24.90589 72.46021,28.06975 C72.46021,31.259125 74.680015,33.52996 77.81836,33.52996 Z M107.2107,37 L105.756345,33.351355 L97.97427,33.351355 L96.54543,37 L92.36097,37 L99.887895,19.113985 L103.94478,19.113985 L111.44619,37 L107.2107,37 Z M101.878065,23.553595 L99.45414,29.65168 L104.30199,29.65168 L101.878065,23.553595 Z M126.80528,33.88717 L122.340155,25.900975 L122.340155,37 L118.28327,37 L118.28327,19.113985 L122.289125,19.113985 L128.33618,29.626165 L134.383235,19.113985 L138.33806,19.113985 L138.33806,37 L134.25566,37 L134.25566,25.952005 L129.81605,33.88717 L126.80528,33.88717 Z M160.0759,37 L146.55295,37 L146.55295,19.1395 L159.97384,19.1395 L159.97384,22.81366 L150.63535,22.81366 L150.63535,26.18164 L159.284935,26.18164 L159.284935,29.8558 L150.63535,29.8558 L150.63535,33.32584 L160.0759,33.32584 L160.0759,37 Z M182.68125,19.1395 L186.45747,31.43773 L190.33575,19.1395 L194.52021,19.1395 L188.575215,37.025515 L184.237665,37.025515 L180.58902,24.7528 L176.889345,37.025515 L172.62834,37.025515 L166.683345,19.1395 L171.04641,19.1395 L174.82263,31.28464 L178.624365,19.1395 L182.68125,19.1395 Z M209.8793,18.83332 C215.160905,18.83332 219.294335,22.890205 219.294335,28.06975 C219.294335,33.249295 215.160905,37.30618 209.8793,37.30618 C204.597695,37.30618 200.43875,33.249295 200.43875,28.06975 C200.43875,22.890205 204.597695,18.83332 209.8793,18.83332 Z M209.8793,33.402385 C212.762495,33.402385 215.109875,31.18258 215.109875,28.06975 C215.109875,24.95692 212.762495,22.737115 209.8793,22.737115 C206.97059,22.737115 204.648725,24.95692 204.648725,28.06975 C204.648725,31.18258 206.97059,33.402385 209.8793,33.402385 Z M231.285445,31.310155 L231.285445,37 L227.203045,37 L227.203045,19.1395 L235.418875,19.1395 C240.011575,19.1395 242.33344,21.716515 242.33344,25.237585 C242.33344,27.993205 240.80254,30.187495 237.868315,31.003975 L242.461015,37 L237.89383,37 L233.581795,31.310155 L231.285445,31.310155 Z M231.285445,27.71254 L235.061665,27.71254 C237.07735,27.71254 238.123465,26.819515 238.123465,25.237585 C238.123465,23.68117 237.07735,22.788145 235.061665,22.788145 L231.285445,22.788145 L231.285445,27.71254 Z M266.342115,19.1395 L258.96828,27.04915 L266.699325,37 L261.77493,37 L256.289205,29.90683 L254.0694,32.30524 L254.0694,37 L249.987,37 L249.987,19.1395 L254.0694,19.1395 L254.0694,27.04915 L261.392205,19.1395 L266.342115,19.1395 Z M279.915155,33.68305 C281.82878,33.68305 282.925925,32.994145 282.925925,31.84597 C282.925925,30.799855 282.160475,30.187495 280.04273,29.830285 L278.25668,29.49859 C274.42943,28.860715 272.770955,26.94709 272.770955,24.19147 C272.770955,21.02761 275.14385,18.858835 279.557945,18.858835 C283.895495,18.858835 286.26839,21.002095 286.52354,24.14044 L282.568715,24.14044 C282.364595,23.06881 281.31848,22.45645 279.608975,22.45645 C277.84844,22.45645 276.853355,23.06881 276.853355,24.216985 C276.853355,25.36516 277.79741,25.82443 279.88964,26.156125 L281.701205,26.48782 C285.528455,27.125695 287.03384,28.88623 287.03384,31.616335 C287.03384,35.341525 284.22719,37.280665 279.864125,37.280665 C275.399,37.280665 272.74544,35.188435 272.515805,31.79494 L276.496145,31.79494 C276.649235,32.96863 277.771895,33.68305 279.915155,33.68305 Z" id="GAMEWORKS" fill="#F8D154" fill-rule="nonzero"></path>
                    <polygon id="Rectangle-2-Copy" fill="#FF530D" transform="translate(36.101134, 36.706054) rotate(-315.000000) translate(-36.101134, -36.706054) " points="46.2950892 16.3879652 46.0856244 56.9543205 32.563506 57.0241421 32.6330974 43.5466019 25.9071792 36.7758753 32.7032352 29.9632437"></polygon>
                    <polygon id="Rectangle-2-Copy-2" fill="#FF0000" transform="translate(19.221906, 39.059421) rotate(-45.000000) translate(-19.221906, -39.059421) " points="12.3561143 18.7413322 25.8782327 18.8111538 26.0876976 59.3775091 12.5655791 59.3076874"></polygon>
                    <polygon id="Rectangle-2" fill="#E80C7A" transform="translate(19.221906, 20.024421) rotate(-315.000000) translate(-19.221906, -20.024421) " points="12.5655791 -0.223846232 26.0876976 -0.293667842 25.8782327 40.2726874 12.3561143 40.3425091"></polygon>
                    <polygon id="Rectangle-2-Copy-3" fill="#FF0DFF" transform="translate(38.454501, 20.024421) rotate(-225.000000) translate(-38.454501, -20.024421) " points="31.5887095 -0.293667842 45.1806355 13.2955663 45.3202927 40.3425091 31.7981743 40.2726874"></polygon>
                </g>
            </g>
        </g>
    </g>
</svg>