<?xml version="1.0" encoding="UTF-8"?>
<svg width="222px" height="47px" viewBox="0 0 222 47" version="1.1" xmlns="http://www.w3.org/2000/svg" xmlns:xlink="http://www.w3.org/1999/xlink">
    <!-- Generator: Sketch 54.1 (76490) - https://sketchapp.com -->
    <title></title>
    <desc>Created with Sketch.</desc>
    <g id="Page-1" stroke="none" stroke-width="1" fill="none" fill-rule="evenodd">
        <g id="My-wallet" transform="translate(-32.000000, -28.000000)">
            <g id="Navbar">
                <g id="LOGO" transform="translate(32.000000, 28.000000)">
                    <path d="M62.8795002,18.796 C65.0645002,18.796 66.6415002,17.504 66.8505002,15.718 L62.8415002,15.718 L62.8415002,13.495 L69.4345002,13.495 C69.5105002,13.913 69.5295002,14.293 69.5295002,14.635 C69.5295002,18.967 66.3565002,21.228 62.8415002,21.228 C58.9085002,21.228 55.9065002,18.207 55.9065002,14.35 C55.9065002,10.493 58.9465002,7.472 62.8795002,7.472 C66.0525002,7.472 68.6555002,9.353 69.2635002,12.108 L66.4895002,12.108 C65.9575002,10.835 64.8175002,9.904 62.9365002,9.904 C60.4475002,9.904 58.6235002,11.766 58.6235002,14.35 C58.6235002,16.934 60.4095002,18.796 62.8795002,18.796 Z M85.4825001,21 L84.2665001,18.017 L78.1865001,18.017 L76.9705001,21 L74.2725001,21 L79.9915001,7.681 L82.4995001,7.681 L88.1995001,21 L85.4825001,21 Z M81.2265001,10.569 L79.1555001,15.623 L83.2785001,15.623 L81.2265001,10.569 Z M100.2385,18.625 L96.4575001,12.051 L96.4575001,21 L93.8545001,21 L93.8545001,7.681 L96.4385001,7.681 L101.2455,15.908 L106.0335,7.681 L108.5605,7.681 L108.5605,21 L105.9385,21 L105.9385,12.108 L102.1955,18.625 L100.2385,18.625 Z M125.2355,21 L115.3555,21 L115.3555,7.7 L125.1405,7.7 L125.1405,10.056 L117.9965,10.056 L117.9965,13.134 L124.6655,13.134 L124.6655,15.49 L117.9965,15.49 L117.9965,18.644 L125.2355,18.644 L125.2355,21 Z M142.1765,7.7 L145.2545,17.295 L148.4085,7.7 L151.0685,7.7 L146.5845,21.019 L143.8865,21.019 L140.8655,11.443 L137.8255,21.019 L135.1655,21.019 L130.6815,7.7 L133.4745,7.7 L136.5335,17.238 L139.6495,7.7 L142.1765,7.7 Z M163.0315,7.472 C166.9265,7.472 170.0045,10.493 170.0045,14.35 C170.0045,18.207 166.9265,21.228 163.0315,21.228 C159.1175,21.228 156.0395,18.207 156.0395,14.35 C156.0395,10.493 159.1175,7.472 163.0315,7.472 Z M163.0315,18.758 C165.3875,18.758 167.2875,16.915 167.2875,14.35 C167.2875,11.785 165.3875,9.942 163.0315,9.942 C160.6565,9.942 158.7565,11.785 158.7565,14.35 C158.7565,16.915 160.6565,18.758 163.0315,18.758 Z M179.0795,16.535 L179.0795,21 L176.4385,21 L176.4385,7.7 L182.4235,7.7 C185.7485,7.7 187.4965,9.524 187.4965,12.108 C187.4965,14.198 186.2615,15.813 183.9815,16.345 L187.5725,21 L184.6085,21 L181.1695,16.535 L179.0795,16.535 Z M179.0795,14.198 L182.1765,14.198 C183.9055,14.198 184.8175,13.457 184.8175,12.108 C184.8175,10.797 183.9055,10.037 182.1765,10.037 L179.0795,10.037 L179.0795,14.198 Z M205.6345,7.7 L200.0865,13.59 L205.9195,21 L202.7275,21 L198.3575,15.414 L196.4765,17.409 L196.4765,21 L193.8355,21 L193.8355,7.7 L196.4765,7.7 L196.4765,14.027 L202.4045,7.7 L205.6345,7.7 Z M216.1725,18.891 C217.7115,18.891 218.6805,18.283 218.6805,17.257 C218.6805,16.383 218.0915,15.851 216.4765,15.547 L214.9945,15.243 C212.2585,14.711 211.0045,13.4 211.0045,11.367 C211.0045,9.011 212.7715,7.491 215.9255,7.491 C218.9845,7.491 220.7135,8.992 220.9415,11.234 L218.3955,11.234 C218.2245,10.322 217.3125,9.809 215.9445,9.809 C214.5195,9.809 213.6455,10.341 213.6455,11.367 C213.6455,12.336 214.4055,12.754 216.0395,13.058 L217.5405,13.362 C220.2385,13.894 221.3405,15.129 221.3405,17.105 C221.3405,19.822 219.2505,21.209 216.1535,21.209 C212.9615,21.209 210.9665,19.727 210.7575,17.257 L213.3225,17.257 C213.4555,18.302 214.4625,18.891 216.1725,18.891 Z M73.779,31.2 L73.779,32.964 L70.755,32.964 L70.755,41 L68.809,41 L68.809,32.964 L65.785,32.964 L65.785,31.2 L73.779,31.2 Z M83.561,31.032 C86.431,31.032 88.699,33.258 88.699,36.1 C88.699,38.942 86.431,41.168 83.561,41.168 C80.677,41.168 78.409,38.942 78.409,36.1 C78.409,33.258 80.677,31.032 83.561,31.032 Z M83.561,39.348 C85.297,39.348 86.697,37.99 86.697,36.1 C86.697,34.21 85.297,32.852 83.561,32.852 C81.811,32.852 80.411,34.21 80.411,36.1 C80.411,37.99 81.811,39.348 83.561,39.348 Z M103.157,31.2 L99.069,35.54 L103.367,41 L101.015,41 L97.795,36.884 L96.409,38.354 L96.409,41 L94.463,41 L94.463,31.2 L96.409,31.2 L96.409,35.862 L100.777,31.2 L103.157,31.2 Z M115.697,41 L108.417,41 L108.417,31.2 L115.627,31.2 L115.627,32.936 L110.363,32.936 L110.363,35.204 L115.277,35.204 L115.277,36.94 L110.363,36.94 L110.363,39.264 L115.697,39.264 L115.697,41 Z M121.447,31.186 L123.267,31.186 L128.307,37.934 L128.307,31.2 L130.211,31.2 L130.211,41.014 L128.391,41.014 L123.365,34.266 L123.365,41 L121.447,41 L121.447,31.186 Z M152.085,36.1 C152.085,38.858 149.957,41 146.989,41 L143.293,41 L143.293,31.2 L146.989,31.2 C149.957,31.2 152.085,33.342 152.085,36.1 Z M145.239,39.236 L146.919,39.236 C148.837,39.236 150.097,37.906 150.097,36.1 C150.097,34.294 148.837,32.964 146.919,32.964 L145.239,32.964 L145.239,39.236 Z M165.129,41 L157.849,41 L157.849,31.2 L165.059,31.2 L165.059,32.936 L159.795,32.936 L159.795,35.204 L164.709,35.204 L164.709,36.94 L159.795,36.94 L159.795,39.264 L165.129,39.264 L165.129,41 Z M172.825,36.058 L175.023,36.058 C176.269,36.058 176.941,35.526 176.941,34.49 C176.941,33.482 176.269,32.936 175.023,32.936 L172.825,32.936 L172.825,36.058 Z M172.825,37.794 L172.825,41 L170.879,41 L170.879,31.2 L175.219,31.2 C177.627,31.2 178.929,32.544 178.929,34.49 C178.929,36.45 177.627,37.78 175.219,37.794 L172.825,37.794 Z M189.453,31.032 C192.323,31.032 194.591,33.258 194.591,36.1 C194.591,38.942 192.323,41.168 189.453,41.168 C186.569,41.168 184.301,38.942 184.301,36.1 C184.301,33.258 186.569,31.032 189.453,31.032 Z M189.453,39.348 C191.189,39.348 192.589,37.99 192.589,36.1 C192.589,34.21 191.189,32.852 189.453,32.852 C187.703,32.852 186.303,34.21 186.303,36.1 C186.303,37.99 187.703,39.348 189.453,39.348 Z M207.215,31.2 L207.215,32.964 L204.191,32.964 L204.191,41 L202.245,41 L202.245,32.964 L199.221,32.964 L199.221,31.2 L207.215,31.2 Z" id="GAMEWORKSTOKENDEPOT" fill="#F8D154" fill-rule="nonzero"></path>
                    <polygon id="Rectangle-2-Copy" fill="#FF530D" transform="translate(29.367381, 29.367381) rotate(-315.000000) translate(-29.367381, -29.367381) " points="37.671268 12.7596072 37.671268 45.9751549 26.5994188 45.9751549 26.5994188 34.9398061 21.0634942 29.3673811 26.5994188 23.817814"></polygon>
                    <polygon id="Rectangle-2-Copy-2" fill="#FF0000" transform="translate(15.657959, 31.324626) rotate(-45.000000) translate(-15.657959, -31.324626) " points="10.1220347 14.7168522 21.193884 14.7168522 21.193884 47.9323999 10.1220347 47.9323999"></polygon>
                    <polygon id="Rectangle-2" fill="#E80C7A" transform="translate(15.657959, 15.657959) rotate(-315.000000) translate(-15.657959, -15.657959) " points="10.1220347 -0.949814504 21.193884 -0.949814504 21.193884 32.2657332 10.1220347 32.2657332"></polygon>
                    <polygon id="Rectangle-2-Copy-3" fill="#FF0DFF" transform="translate(31.324626, 15.657959) rotate(-225.000000) translate(-31.324626, -15.657959) " points="25.7887014 -0.949814504 36.8605506 10.1198192 36.8605506 32.2657332 25.7887014 32.2657332"></polygon>
                </g>
            </g>
        </g>
    </g>
</svg>