<?xml version="1.0" encoding="UTF-8"?>
<svg width="289px" height="176px" viewBox="0 0 289 176" version="1.1" xmlns="http://www.w3.org/2000/svg" xmlns:xlink="http://www.w3.org/1999/xlink">
    <!-- Generator: Sketch 54.1 (76490) - https://sketchapp.com -->
    <title>LOGO</title>
    <desc>Created with Sketch.</desc>
    <g id="Page-1" stroke="none" stroke-width="1" fill="none" fill-rule="evenodd">
        <g id="LOGIN" transform="translate(-365.000000, -60.000000)">
            <g id="LOGO" transform="translate(363.000000, 60.000000)">
                <path d="M14.922101,133.94 C18.947101,133.94 21.852101,131.56 22.237101,128.27 L14.852101,128.27 L14.852101,124.175 L26.997101,124.175 C27.137101,124.945 27.172101,125.645 27.172101,126.275 C27.172101,134.255 21.327101,138.42 14.852101,138.42 C7.607101,138.42 2.077101,132.855 2.077101,125.75 C2.077101,118.645 7.677101,113.08 14.922101,113.08 C20.767101,113.08 25.562101,116.545 26.682101,121.62 L21.572101,121.62 C20.592101,119.275 18.492101,117.56 15.027101,117.56 C10.442101,117.56 7.082101,120.99 7.082101,125.75 C7.082101,130.51 10.372101,133.94 14.922101,133.94 Z M54.645523,138 L52.405523,132.505 L41.205523,132.505 L38.965523,138 L33.995523,138 L44.530523,113.465 L49.150523,113.465 L59.650523,138 L54.645523,138 Z M46.805523,118.785 L42.990523,128.095 L50.585523,128.095 L46.805523,118.785 Z M79.913945,133.625 L72.948945,121.515 L72.948945,138 L68.153945,138 L68.153945,113.465 L72.913945,113.465 L81.768945,128.62 L90.588945,113.465 L95.243945,113.465 L95.243945,138 L90.413945,138 L90.413945,121.62 L83.518945,133.625 L79.913945,133.625 Z M124.047367,138 L105.847367,138 L105.847367,113.5 L123.872367,113.5 L123.872367,117.84 L110.712367,117.84 L110.712367,123.51 L122.997367,123.51 L122.997367,127.85 L110.712367,127.85 L110.712367,133.66 L124.047367,133.66 L124.047367,138 Z M153.340789,113.5 L159.010789,131.175 L164.820789,113.5 L169.720789,113.5 L161.460789,138.035 L156.490789,138.035 L150.925789,120.395 L145.325789,138.035 L140.425789,138.035 L132.165789,113.5 L137.310789,113.5 L142.945789,131.07 L148.685789,113.5 L153.340789,113.5 Z M189.844211,113.08 C197.019211,113.08 202.689211,118.645 202.689211,125.75 C202.689211,132.855 197.019211,138.42 189.844211,138.42 C182.634211,138.42 176.964211,132.855 176.964211,125.75 C176.964211,118.645 182.634211,113.08 189.844211,113.08 Z M189.844211,133.87 C194.184211,133.87 197.684211,130.475 197.684211,125.75 C197.684211,121.025 194.184211,117.63 189.844211,117.63 C185.469211,117.63 181.969211,121.025 181.969211,125.75 C181.969211,130.475 185.469211,133.87 189.844211,133.87 Z M217.492633,129.775 L217.492633,138 L212.627633,138 L212.627633,113.5 L223.652633,113.5 C229.777633,113.5 232.997633,116.86 232.997633,121.62 C232.997633,125.47 230.722633,128.445 226.522633,129.425 L233.137633,138 L227.677633,138 L221.342633,129.775 L217.492633,129.775 Z M217.492633,125.47 L223.197633,125.47 C226.382633,125.47 228.062633,124.105 228.062633,121.62 C228.062633,119.205 226.382633,117.805 223.197633,117.805 L217.492633,117.805 L217.492633,125.47 Z M264.496055,113.5 L254.276055,124.35 L265.021055,138 L259.141055,138 L251.091055,127.71 L247.626055,131.385 L247.626055,138 L242.761055,138 L242.761055,113.5 L247.626055,113.5 L247.626055,125.155 L258.546055,113.5 L264.496055,113.5 Z M281.329477,134.115 C284.164477,134.115 285.949477,132.995 285.949477,131.105 C285.949477,129.495 284.864477,128.515 281.889477,127.955 L279.159477,127.395 C274.119477,126.415 271.809477,124 271.809477,120.255 C271.809477,115.915 275.064477,113.115 280.874477,113.115 C286.509477,113.115 289.694477,115.88 290.114477,120.01 L285.424477,120.01 C285.109477,118.33 283.429477,117.385 280.909477,117.385 C278.284477,117.385 276.674477,118.365 276.674477,120.255 C276.674477,122.04 278.074477,122.81 281.084477,123.37 L283.849477,123.93 C288.819477,124.91 290.849477,127.185 290.849477,130.825 C290.849477,135.83 286.999477,138.385 281.294477,138.385 C275.414477,138.385 271.739477,135.655 271.354477,131.105 L276.079477,131.105 C276.324477,133.03 278.179477,134.115 281.329477,134.115 Z M39.254679,156.8 L39.254679,160.076 L33.638679,160.076 L33.638679,175 L30.024679,175 L30.024679,160.076 L24.408679,160.076 L24.408679,156.8 L39.254679,156.8 Z M55.521101,156.488 C60.851101,156.488 65.063101,160.622 65.063101,165.9 C65.063101,171.178 60.851101,175.312 55.521101,175.312 C50.165101,175.312 45.953101,171.178 45.953101,165.9 C45.953101,160.622 50.165101,156.488 55.521101,156.488 Z M55.521101,171.932 C58.745101,171.932 61.345101,169.41 61.345101,165.9 C61.345101,162.39 58.745101,159.868 55.521101,159.868 C52.271101,159.868 49.671101,162.39 49.671101,165.9 C49.671101,169.41 52.271101,171.932 55.521101,171.932 Z M90.013523,156.8 L82.421523,164.86 L90.403523,175 L86.035523,175 L80.055523,167.356 L77.481523,170.086 L77.481523,175 L73.867523,175 L73.867523,156.8 L77.481523,156.8 L77.481523,165.458 L85.593523,156.8 L90.013523,156.8 Z M111.401945,175 L97.881945,175 L97.881945,156.8 L111.271945,156.8 L111.271945,160.024 L101.495945,160.024 L101.495945,164.236 L110.621945,164.236 L110.621945,167.46 L101.495945,167.46 L101.495945,171.776 L111.401945,171.776 L111.401945,175 Z M120.180367,156.774 L123.560367,156.774 L132.920367,169.306 L132.920367,156.8 L136.456367,156.8 L136.456367,175.026 L133.076367,175.026 L123.742367,162.494 L123.742367,175 L120.180367,175 L120.180367,156.774 Z M173.279211,165.9 C173.279211,171.022 169.327211,175 163.815211,175 L156.951211,175 L156.951211,156.8 L163.815211,156.8 C169.327211,156.8 173.279211,160.778 173.279211,165.9 Z M160.565211,171.724 L163.685211,171.724 C167.247211,171.724 169.587211,169.254 169.587211,165.9 C169.587211,162.546 167.247211,160.076 163.685211,160.076 L160.565211,160.076 L160.565211,171.724 Z M195.603633,175 L182.083633,175 L182.083633,156.8 L195.473633,156.8 L195.473633,160.024 L185.697633,160.024 L185.697633,164.236 L194.823633,164.236 L194.823633,167.46 L185.697633,167.46 L185.697633,171.776 L195.603633,171.776 L195.603633,175 Z M207.996055,165.822 L212.078055,165.822 C214.392055,165.822 215.640055,164.834 215.640055,162.91 C215.640055,161.038 214.392055,160.024 212.078055,160.024 L207.996055,160.024 L207.996055,165.822 Z M207.996055,169.046 L207.996055,175 L204.382055,175 L204.382055,156.8 L212.442055,156.8 C216.914055,156.8 219.332055,159.296 219.332055,162.91 C219.332055,166.55 216.914055,169.02 212.442055,169.046 L207.996055,169.046 Z M236.976477,156.488 C242.306477,156.488 246.518477,160.622 246.518477,165.9 C246.518477,171.178 242.306477,175.312 236.976477,175.312 C231.620477,175.312 227.408477,171.178 227.408477,165.9 C227.408477,160.622 231.620477,156.488 236.976477,156.488 Z M236.976477,171.932 C240.200477,171.932 242.800477,169.41 242.800477,165.9 C242.800477,162.39 240.200477,159.868 236.976477,159.868 C233.726477,159.868 231.126477,162.39 231.126477,165.9 C231.126477,169.41 233.726477,171.932 236.976477,171.932 Z M268.062899,156.8 L268.062899,160.076 L262.446899,160.076 L262.446899,175 L258.832899,175 L258.832899,160.076 L253.216899,160.076 L253.216899,156.8 L268.062899,156.8 Z" id="GAMEWORKSTOKENDEPOT" fill="#F8D154" fill-rule="nonzero"></path>
                <g id="Group" transform="translate(115.000000, 0.000000)">
                    <polygon id="Rectangle-2-Copy" fill="#FF530D" transform="translate(52.456424, 52.862033) rotate(-315.000000) translate(-52.456424, -52.862033) " points="67.2347327 23.2636514 67.262575 82.4604147 47.5303205 82.451134 47.5210704 62.7839305 37.6502722 52.8481119 47.5117476 42.9623115"></polygon>
                    <polygon id="Rectangle-2-Copy-2" fill="#FF0000" transform="translate(28.034978, 56.342033) rotate(-45.000000) translate(-28.034978, -56.342033) " points="18.1827718 26.7482914 37.9150263 26.7390107 37.887184 85.935774 18.1549296 85.9450547"></polygon>
                    <polygon id="Rectangle-2" fill="#E80C7A" transform="translate(28.034978, 28.407760) rotate(-315.000000) translate(-28.034978, -28.407760) " points="18.1549296 -1.19526165 37.887184 -1.1859809 37.9150263 58.0107824 18.1827718 58.0015017"></polygon>
                    <polygon id="Rectangle-2-Copy-3" fill="#FF0DFF" transform="translate(55.942985, 28.401199) rotate(-225.000000) translate(-55.942985, -28.401199) " points="46.0954184 -1.1971831 65.8183939 18.5218421 65.7998306 57.9902995 46.0675761 57.9995802"></polygon>
                </g>
            </g>
        </g>
    </g>
</svg>