<?xml version="1.0" encoding="UTF-8"?>
<svg width="289px" height="58px" viewBox="0 0 289 58" version="1.1" xmlns="http://www.w3.org/2000/svg" xmlns:xlink="http://www.w3.org/1999/xlink">
    <!-- Generator: Sketch 54.1 (76490) - https://sketchapp.com -->
    <title>LOGO-textblack</title>
    <desc>Created with Sketch.</desc>
    <g id="Logo-Styleguide" stroke="none" stroke-width="1" fill="none" fill-rule="evenodd">
        <g id="Usage" transform="translate(-176.000000, -352.000000)">
            <g id="Group-2" transform="translate(176.000000, 268.000000)">
                <g id="LOGO-textblack" transform="translate(0.000000, 83.250000)">
                    <path d="M78.81836,33.27996 C81.446405,33.27996 83.334515,31.90215 83.589665,29.80992 L78.537695,29.80992 L78.537695,26.569515 L87.54449,26.569515 C87.64655,27.15636 87.69758,27.845265 87.69758,28.304535 C87.69758,34.224015 83.25797,37.05618 78.66527,37.05618 C73.35815,37.05618 69.27575,32.999295 69.27575,27.81975 C69.27575,22.640205 73.383665,18.58332 78.66527,18.58332 C82.95179,18.58332 86.498375,21.08379 87.314855,24.91104 L82.977305,24.91104 C82.44149,23.4822 81.038165,22.41057 78.81836,22.41057 C75.6545,22.41057 73.46021,24.65589 73.46021,27.81975 C73.46021,31.009125 75.680015,33.27996 78.81836,33.27996 Z M108.2107,36.75 L106.756345,33.101355 L98.97427,33.101355 L97.54543,36.75 L93.36097,36.75 L100.887895,18.863985 L104.94478,18.863985 L112.44619,36.75 L108.2107,36.75 Z M102.878065,23.303595 L100.45414,29.40168 L105.30199,29.40168 L102.878065,23.303595 Z M127.80528,33.63717 L123.340155,25.650975 L123.340155,36.75 L119.28327,36.75 L119.28327,18.863985 L123.289125,18.863985 L129.33618,29.376165 L135.383235,18.863985 L139.33806,18.863985 L139.33806,36.75 L135.25566,36.75 L135.25566,25.702005 L130.81605,33.63717 L127.80528,33.63717 Z M161.0759,36.75 L147.55295,36.75 L147.55295,18.8895 L160.97384,18.8895 L160.97384,22.56366 L151.63535,22.56366 L151.63535,25.93164 L160.284935,25.93164 L160.284935,29.6058 L151.63535,29.6058 L151.63535,33.07584 L161.0759,33.07584 L161.0759,36.75 Z M183.68125,18.8895 L187.45747,31.18773 L191.33575,18.8895 L195.52021,18.8895 L189.575215,36.775515 L185.237665,36.775515 L181.58902,24.5028 L177.889345,36.775515 L173.62834,36.775515 L167.683345,18.8895 L172.04641,18.8895 L175.82263,31.03464 L179.624365,18.8895 L183.68125,18.8895 Z M210.8793,18.58332 C216.160905,18.58332 220.294335,22.640205 220.294335,27.81975 C220.294335,32.999295 216.160905,37.05618 210.8793,37.05618 C205.597695,37.05618 201.43875,32.999295 201.43875,27.81975 C201.43875,22.640205 205.597695,18.58332 210.8793,18.58332 Z M210.8793,33.152385 C213.762495,33.152385 216.109875,30.93258 216.109875,27.81975 C216.109875,24.70692 213.762495,22.487115 210.8793,22.487115 C207.97059,22.487115 205.648725,24.70692 205.648725,27.81975 C205.648725,30.93258 207.97059,33.152385 210.8793,33.152385 Z M232.285445,31.060155 L232.285445,36.75 L228.203045,36.75 L228.203045,18.8895 L236.418875,18.8895 C241.011575,18.8895 243.33344,21.466515 243.33344,24.987585 C243.33344,27.743205 241.80254,29.937495 238.868315,30.753975 L243.461015,36.75 L238.89383,36.75 L234.581795,31.060155 L232.285445,31.060155 Z M232.285445,27.46254 L236.061665,27.46254 C238.07735,27.46254 239.123465,26.569515 239.123465,24.987585 C239.123465,23.43117 238.07735,22.538145 236.061665,22.538145 L232.285445,22.538145 L232.285445,27.46254 Z M267.342115,18.8895 L259.96828,26.79915 L267.699325,36.75 L262.77493,36.75 L257.289205,29.65683 L255.0694,32.05524 L255.0694,36.75 L250.987,36.75 L250.987,18.8895 L255.0694,18.8895 L255.0694,26.79915 L262.392205,18.8895 L267.342115,18.8895 Z M280.915155,33.43305 C282.82878,33.43305 283.925925,32.744145 283.925925,31.59597 C283.925925,30.549855 283.160475,29.937495 281.04273,29.580285 L279.25668,29.24859 C275.42943,28.610715 273.770955,26.69709 273.770955,23.94147 C273.770955,20.77761 276.14385,18.608835 280.557945,18.608835 C284.895495,18.608835 287.26839,20.752095 287.52354,23.89044 L283.568715,23.89044 C283.364595,22.81881 282.31848,22.20645 280.608975,22.20645 C278.84844,22.20645 277.853355,22.81881 277.853355,23.966985 C277.853355,25.11516 278.79741,25.57443 280.88964,25.906125 L282.701205,26.23782 C286.528455,26.875695 288.03384,28.63623 288.03384,31.366335 C288.03384,35.091525 285.22719,37.030665 280.864125,37.030665 C276.399,37.030665 273.74544,34.938435 273.515805,31.54494 L277.496145,31.54494 C277.649235,32.71863 278.771895,33.43305 280.915155,33.43305 Z" id="GAMEWORKS" fill="#000000" fill-rule="nonzero"></path>
                    <polygon id="Rectangle-2-Copy" fill="#FF530D" transform="translate(36.940667, 36.755425) rotate(-315.000000) translate(-36.940667, -36.755425) " points="47.3440864 16.1580501 46.7156919 57.1433351 33.0539302 57.3527999 33.2627045 43.7360768 26.5372466 36.9648899 33.473118 30.0124429"></polygon>
                    <polygon id="Rectangle-2-Copy-2" fill="#FF0000" transform="translate(19.616877, 39.059421) rotate(-45.000000) translate(-19.616877, -39.059421) " points="12.4717985 18.4620457 26.1335602 18.6715106 26.7619547 59.6567955 13.100193 59.4473307"></polygon>
                    <polygon id="Rectangle-2" fill="#E80C7A" transform="translate(19.616877, 20.024421) rotate(-315.000000) translate(-19.616877, -20.024421) " points="13.100193 -0.363489452 26.7619547 -0.572954282 26.1335602 40.4123307 12.4717985 40.6217955"></polygon>
                    <polygon id="Rectangle-2-Copy-3" fill="#FF0DFF" transform="translate(39.244662, 20.024421) rotate(-225.000000) translate(-39.244662, -20.024421) " points="32.099584 -0.572954282 45.9707686 13.2955384 46.3897401 40.6217955 32.7279785 40.4123307"></polygon>
                </g>
            </g>
        </g>
    </g>
</svg>