<?xml version="1.0" encoding="UTF-8"?>
<svg width="100%" height="100%" viewBox="0 0 453 204" version="1.1" xmlns="http://www.w3.org/2000/svg" xmlns:xlink="http://www.w3.org/1999/xlink">
    <!-- Generator: Sketch 54.1 (76490) - https://sketchapp.com -->
    <title>Group 6</title>
    <desc>Created with Sketch.</desc>
    <defs>
        <radialGradient cx="50%" cy="55.4023125%" fx="50%" fy="55.4023125%" r="78.619539%" gradientTransform="translate(0.500000,0.554023),scale(0.450331,1.000000),rotate(-90.000000),translate(-0.500000,-0.554023)" id="radialGradient-1">
            <stop stop-color="#00AEA8" offset="0%"></stop>
            <stop stop-color="#001F4D" offset="100%"></stop>
        </radialGradient>
        <path d="M157.945461,155.781915 C160.567955,158.897606 160.380634,163.712766 157.196176,166.450798 C154.011718,169.18883 149.609673,169.094415 146.706197,165.884309 L129.65998,146.529255 L129.65998,160.974734 C129.65998,165.034574 126.288201,168.433511 122.260798,168.433511 C118.139735,168.433511 114.767955,165.034574 114.767955,160.974734 L114.767955,106.025266 C114.767955,101.965426 118.139735,98.5664894 122.260798,98.5664894 C126.288201,98.5664894 129.65998,101.965426 129.65998,106.025266 L129.65998,120.1875 L145.020307,102.4375 C147.830123,99.3218085 152.51315,98.9441489 155.603947,101.776596 C158.694745,104.420213 159.069387,109.235372 156.353232,112.351064 L138.089428,133.405585 L157.945461,155.781915 Z M197.095563,153.327128 C201.122966,153.327128 204.494745,156.726064 204.494745,160.974734 C204.494745,165.034574 201.122966,168.433511 197.095563,168.433511 L173.77409,168.433511 C169.653027,168.433511 166.281248,165.034574 166.281248,160.974734 L166.281248,106.025266 C166.281248,101.965426 169.653027,98.5664894 173.77409,98.5664894 L197.095563,98.5664894 C201.122966,98.5664894 204.494745,101.965426 204.494745,106.025266 C204.494745,110.273936 201.122966,113.672872 197.095563,113.672872 L181.266933,113.672872 L181.266933,126.890957 L196.252618,126.890957 C199.905379,126.890957 202.808855,129.912234 202.808855,133.5 C202.808855,137.182181 199.905379,140.109043 196.252618,140.109043 L181.266933,140.109043 L181.266933,153.327128 L197.095563,153.327128 Z M259.286156,98.5664894 C263.407219,98.5664894 266.778998,101.965426 266.778998,106.025266 L266.778998,160.880319 C266.778998,167.772606 258.443211,170.699468 253.666524,166.073138 C252.729919,165.128989 251.886974,163.712766 251.13769,162.579787 C250.013763,160.785904 228.28452,128.87367 226.973272,126.985372 L226.973272,160.880319 C226.973272,165.034574 223.601493,168.433511 219.48043,168.433511 C215.359367,168.433511 211.987587,165.034574 211.987587,160.880319 L211.987587,106.025266 C211.987587,101.965426 215.359367,98.5664894 219.48043,98.5664894 C222.009264,98.5664894 223.882475,99.793883 225.474704,101.776596 C227.066933,103.853723 242.895563,127.079787 251.886974,140.297872 L251.886974,106.025266 C251.886974,101.965426 255.165092,98.5664894 259.286156,98.5664894 Z M308.551596,98 C328.032986,98 343.767955,113.861702 343.767955,133.5 C343.767955,153.138298 328.032986,169 308.551596,169 C289.163865,169 273.335236,153.138298 273.335236,133.5 C273.335236,113.861702 289.163865,98 308.551596,98 Z M308.457935,113.011968 C297.218671,113.011968 288.320921,122.170213 288.320921,133.5 C288.320921,144.829787 297.218671,153.988032 308.457935,153.988032 C319.509878,153.988032 328.78227,144.640957 328.78227,133.5 C328.78227,122.359043 319.509878,113.011968 308.457935,113.011968 Z" id="path-2"></path>
        <filter x="-10.3%" y="-23.2%" width="120.5%" height="166.2%" filterUnits="objectBoundingBox" id="filter-3">
            <feGaussianBlur stdDeviation="0" in="SourceGraphic"></feGaussianBlur>
        </filter>
        <filter x="-16.8%" y="-44.4%" width="133.6%" height="208.5%" filterUnits="objectBoundingBox" id="filter-4">
            <feMorphology radius="0.5" operator="dilate" in="SourceAlpha" result="shadowSpreadOuter1"></feMorphology>
            <feOffset dx="0" dy="7" in="shadowSpreadOuter1" result="shadowOffsetOuter1"></feOffset>
            <feGaussianBlur stdDeviation="11.5" in="shadowOffsetOuter1" result="shadowBlurOuter1"></feGaussianBlur>
            <feComposite in="shadowBlurOuter1" in2="SourceAlpha" operator="out" result="shadowBlurOuter1"></feComposite>
            <feColorMatrix values="0 0 0 0 0.934442935   0 0 0 0 0   0 0 0 0 1  0 0 0 0.813802083 0" type="matrix" in="shadowBlurOuter1"></feColorMatrix>
        </filter>
        <path d="M283.674122,74.8521739 L298.262287,74.8521739 L298.262287,71.0173913 C294.21297,69.6608628 290.879742,66.4261125 288.262501,61.3130435 C285.64526,56.1999744 284.336659,50.3826413 284.336659,43.8608696 C284.336659,36.0869177 286.040309,29.500027 289.447661,24.1 C292.855012,18.699973 296.9948,16 301.867148,16 C306.772417,16 310.928665,18.699973 314.336016,24.1 C317.743367,29.500027 319.447018,36.0869177 319.447018,43.8608696 C319.447018,50.3826413 318.138417,56.1999744 315.521176,61.3130435 C312.903935,66.4261125 309.570706,69.6608628 305.52139,71.0173913 L305.52139,74.8521739 L321.767955,74.8521739 L321.767955,79 L302.904162,79 L302.904162,67.4956522 L304.03994,67.2608696 C307.694201,66.5304311 310.739373,63.9087182 313.175547,59.3956522 C315.611721,54.8825861 316.82979,49.704377 316.82979,43.8608696 C316.82979,37.2347495 315.381276,31.6261099 312.484204,27.0347826 C309.587132,22.4434553 306.048149,20.1478261 301.867148,20.1478261 C297.719068,20.1478261 294.196545,22.4564987 291.299473,27.073913 C288.402401,31.6913274 286.953887,37.2869237 286.953887,43.8608696 C286.953887,49.704377 288.171956,54.8825861 290.60813,59.3956522 C293.044304,63.9087182 296.089475,66.5304311 299.743736,67.2608696 L300.879514,67.4956522 L300.879514,79 L283.674122,79 L270.834891,79 C269.122985,79 267.707391,78.1130523 266.588068,76.3391304 C265.468745,74.5652085 264.909092,72.3217527 264.909092,69.6086957 L264.909092,23.6695652 L277.748323,23.6695652 C278.43967,23.6695652 278.785338,23.1478313 278.785338,22.1043478 C278.785338,21.0608643 278.43967,20.5391304 277.748323,20.5391304 L250.094595,20.5391304 C249.403248,20.5391304 249.05758,21.0608643 249.05758,22.1043478 C249.05758,23.1478313 249.403248,23.6695652 250.094595,23.6695652 L262.933826,23.6695652 L262.933826,69.6086957 C262.933826,72.3739269 262.382403,74.630426 261.27954,76.3782609 C260.176678,78.1260957 258.752854,79 257.008027,79 L245.92596,79 L222.519054,79 L222.519054,51.373913 C222.519054,49.7043395 222.864722,48.334788 223.556069,47.2652174 C224.247416,46.1956468 225.119816,45.6608696 226.173297,45.6608696 L233.086729,45.6608696 C234.403579,45.6608696 235.769792,45.0869623 237.185406,43.9391304 C239.720344,41.8521635 240.987794,38.2261128 240.987794,33.0608696 C240.987794,27.8956263 239.720344,24.2695757 237.185406,22.1826087 C235.835634,21.086951 234.469422,20.5391304 233.086729,20.5391304 L220.543788,20.5391304 L220.543788,73.2869565 C220.543788,74.9565301 220.20635,76.3260816 219.531464,77.3956522 C218.927332,78.3530899 218.171525,78.8819908 217.264022,78.9823664 L217.264022,79 L202.153235,79 C201.099755,79 200.227354,78.4652227 199.536007,77.3956522 C198.844661,76.3260816 198.498993,74.9565301 198.498993,73.2869565 C198.498993,71.617383 198.844661,70.2478314 199.536007,69.1782609 C200.227354,68.1086903 201.099755,67.573913 202.153235,67.573913 L204.424792,67.573913 C207.716918,67.573913 210.004912,65.5652375 211.288842,61.5478261 C212.01311,59.2521624 212.375238,57.06088 212.375238,54.973913 L212.375238,22.1043478 C212.375238,21.0608643 212.02957,20.5391304 211.338224,20.5391304 C210.679798,20.5391304 210.35059,21.0608643 210.35059,22.1043478 L210.35059,40.4173913 C210.35059,43.1826225 209.799167,45.4260783 208.696305,47.1478261 C207.593442,48.8695738 206.169619,49.7304348 204.424792,49.7304348 C202.679964,49.7304348 201.256141,48.8695738 200.153278,47.1478261 C199.050416,45.4260783 198.498993,43.1826225 198.498993,40.4173913 L198.498993,22.1043478 C198.498993,21.0608643 198.169785,20.5391304 197.51136,20.5391304 C196.852934,20.5391304 196.523726,21.0608643 196.523726,22.1043478 L196.523726,73.2869565 C196.523726,74.9565301 196.186288,76.3260816 195.511402,77.3956522 C194.929321,78.3181441 194.206434,78.8428109 193.342724,78.9696628 L193.342724,79 L189.194665,79 L170.479017,49.4173913 L170.479017,45.6608696 L180.503493,45.6608696 C181.820344,45.6608696 183.186556,45.0869623 184.602171,43.9391304 C187.137109,41.8521635 188.404559,38.2261128 188.404559,33.0608696 C188.404559,27.8956263 187.137109,24.2695757 184.602171,22.1826087 C183.252399,21.086951 181.886187,20.5391304 180.503493,20.5391304 L167.960553,20.5391304 L167.960553,73.2869565 C167.960553,74.9565301 167.623115,76.3260816 166.948229,77.3956522 C166.355152,78.3355694 165.6159,78.8624902 164.730455,78.9764255 L164.730169,79 L163.446246,79 L163.022387,79 L163.022387,78.9720779 C162.130619,78.8513229 161.399502,78.3388945 160.829018,77.4347826 C160.170593,76.3912991 159.841385,75.0087043 159.841385,73.2869565 C159.841385,69.6869385 158.968984,67.1304423 157.224157,65.6173913 C156.26944,64.7826045 155.265356,64.3652174 154.211876,64.3652174 L147.19968,64.3652174 C143.512498,64.3652174 140.714232,62.3043684 138.804799,58.1826087 C137.389184,55.1043324 136.681387,51.6087152 136.681387,47.6956522 L136.681387,40.4173913 C136.681387,36.4521541 137.389184,32.9304502 138.804799,29.8521739 C140.681311,25.7304142 143.479577,23.6695652 147.19968,23.6695652 C150.886863,23.6695652 153.685129,25.7304142 155.594562,29.8521739 C156.977256,32.878276 157.685052,36.3738932 157.717974,40.3391304 C157.717974,41.4347881 158.063642,41.9826087 158.754988,41.9826087 C159.413414,41.9826087 159.742621,41.4608748 159.742621,40.4173913 C159.742621,32.226046 157.717994,26.4608863 153.668678,23.1217391 C151.561716,21.3999914 149.405406,20.5391304 147.19968,20.5391304 C144.993955,20.5391304 142.837645,21.3999914 140.730683,23.1217391 C136.681367,26.4087121 134.65674,32.1738718 134.65674,40.4173913 L134.65674,47.6956522 C134.65674,55.9391717 136.681367,61.7043314 140.730683,64.9913043 C142.837645,66.7130521 144.993955,67.573913 147.19968,67.573913 L154.211876,67.573913 C155.298278,67.573913 156.170678,68.095647 156.829104,69.1391304 C157.487529,70.1826139 157.816737,71.5652088 157.816737,73.2869565 C157.816737,74.9043559 157.471069,76.2608641 156.779722,77.3565217 C156.088375,78.4521794 155.232435,79 154.211876,79 L129.767955,79 L129.767955,74.8521739 L154.211876,74.8521739 C154.903222,74.8521739 155.248891,74.33044 155.248891,73.2869565 C155.248891,72.243473 154.903222,71.7217391 154.211876,71.7217391 L147.19968,71.7217391 C144.730585,71.7217391 142.195686,70.6782713 139.594905,68.5913043 C134.590872,64.573893 132.088893,57.6087452 132.088893,47.6956522 L132.088893,40.4173913 C132.088893,30.5042983 134.590872,23.5391505 139.594905,19.5217391 C142.195686,17.4347722 144.730585,16.3913043 147.19968,16.3913043 C149.701697,16.3913043 152.253057,17.4347722 154.853837,19.5217391 C159.85787,23.5391505 162.359849,30.5042983 162.359849,40.4173913 C162.359849,42.0347907 162.014181,43.3912989 161.322834,44.4869565 C160.631488,45.5826142 159.775548,46.1304348 158.754988,46.1304348 C157.701508,46.1304348 156.845568,45.5956575 156.187142,44.526087 C155.528717,43.4565164 155.183049,42.0869649 155.150127,40.4173913 C155.117206,38.226076 154.755078,36.0608803 154.063731,33.9217391 C152.74688,29.8521536 150.458886,27.8173913 147.19968,27.8173913 C143.940475,27.8173913 141.652481,29.8521536 140.33563,33.9217391 C139.644283,36.0608803 139.298615,38.226076 139.298615,40.4173913 L139.298615,47.6956522 C139.298615,49.8869675 139.644283,52.0521632 140.33563,54.1913043 C141.652481,58.2087157 143.940475,60.2173913 147.19968,60.2173913 L154.211876,60.2173913 C156.154231,60.2173913 157.882571,61.104339 159.39695,62.8782609 C161.438069,65.2260987 162.458613,68.6956292 162.458613,73.2869565 C162.458613,74.2782658 162.78782,74.7999997 163.446246,74.8521739 L163.884392,74.8778917 L164.30631,74.8521739 C164.997657,74.7999997 165.343325,74.2782658 165.343325,73.2869565 L165.343325,16.3913043 L180.503493,16.3913043 C182.972589,16.3913043 185.178281,17.5130323 187.120636,19.7565217 C189.721416,22.7826238 191.021786,27.2173621 191.021786,33.0608696 C191.021786,38.904377 189.721416,43.3391153 187.120636,46.3652174 C185.178281,48.6087069 182.972589,49.7304348 180.503493,49.7304348 L174.380168,49.7304348 L190.23168,74.8521739 L192.869484,74.8521739 C193.56083,74.7999997 193.906499,74.2782658 193.906499,73.2869565 L193.906499,22.1043478 C193.906499,20.4347743 194.243936,19.0652227 194.918823,17.9956522 C195.593709,16.9260816 196.457879,16.3913043 197.51136,16.3913043 C198.56484,16.3913043 199.42901,16.9260816 200.103897,17.9956522 C200.778783,19.0652227 201.11622,20.4347743 201.11622,22.1043478 L201.11622,40.3391304 C201.11622,41.9565298 201.412507,43.2478213 202.00509,44.2130435 C202.597673,45.1782657 203.404232,45.6608696 204.424792,45.6608696 C205.41243,45.6608696 206.210758,45.1782657 206.819802,44.2130435 C207.428845,43.2478213 207.733363,41.9826165 207.733363,40.4173913 L207.733363,22.1043478 C207.733363,20.4869484 208.079031,19.1304403 208.770377,18.0347826 C209.461724,16.939125 210.317664,16.3913043 211.338224,16.3913043 C212.391704,16.3913043 213.255875,16.9260816 213.930761,17.9956522 C214.605647,19.0652227 214.943085,20.4347743 214.943085,22.1043478 L214.943085,54.973913 C214.943085,58.9391503 214.235288,62.4608542 212.819673,65.5391304 C210.943161,69.6608902 208.144895,71.7217391 204.424792,71.7217391 L202.153235,71.7217391 C201.461889,71.7217391 201.11622,72.243473 201.11622,73.2869565 C201.11622,74.33044 201.461889,74.8521739 202.153235,74.8521739 L216.889545,74.8521739 C217.580892,74.7999997 217.92656,74.2782658 217.92656,73.2869565 L217.92656,16.3913043 L233.086729,16.3913043 C235.555824,16.3913043 237.761516,17.5130323 239.703871,19.7565217 C242.304651,22.7826238 243.605022,27.2173621 243.605022,33.0608696 C243.605022,38.904377 242.304651,43.3391153 239.703871,46.3652174 C237.761516,48.6087069 235.555824,49.7304348 233.086729,49.7304348 L226.173297,49.7304348 C225.48195,49.7304348 225.136282,50.2782554 225.136282,51.373913 L225.136282,74.8521739 L245.92596,74.8521739 L257.008027,74.8521739 C259.213752,74.8521739 260.316598,73.1043653 260.316598,69.6086957 L260.316598,27.8173913 L250.094595,27.8173913 C249.041114,27.8173913 248.176944,27.282614 247.502058,26.2130435 C246.827172,25.1434729 246.489734,23.7739214 246.489734,22.1043478 C246.489734,20.3826001 246.818942,19.0000052 247.477367,17.9565217 C248.135792,16.9130383 249.008193,16.3913043 250.094595,16.3913043 L277.748323,16.3913043 C278.834725,16.3913043 279.707125,16.9130383 280.365551,17.9565217 C281.023976,19.0000052 281.353184,20.3826001 281.353184,22.1043478 C281.353184,23.8260956 281.023976,25.2086904 280.365551,26.2521739 C279.707125,27.2956574 278.834725,27.8173913 277.748323,27.8173913 L267.52632,27.8173913 L267.52632,69.6086957 C267.52632,73.1043653 268.629166,74.8521739 270.834891,74.8521739 L283.674122,74.8521739 Z" id="path-5"></path>
        <filter x="-12.0%" y="-25.4%" width="124.0%" height="173.0%" filterUnits="objectBoundingBox" id="filter-6">
            <feGaussianBlur stdDeviation="0" in="SourceGraphic"></feGaussianBlur>
        </filter>
        <filter x="-19.8%" y="-49.2%" width="139.6%" height="220.6%" filterUnits="objectBoundingBox" id="filter-7">
            <feOffset dx="0" dy="7" in="SourceAlpha" result="shadowOffsetOuter1"></feOffset>
            <feGaussianBlur stdDeviation="11.5" in="shadowOffsetOuter1" result="shadowBlurOuter1"></feGaussianBlur>
            <feComposite in="shadowBlurOuter1" in2="SourceAlpha" operator="out" result="shadowBlurOuter1"></feComposite>
            <feColorMatrix values="0 0 0 0 0.934442935   0 0 0 0 0   0 0 0 0 1  0 0 0 0.813802083 0" type="matrix" in="shadowBlurOuter1"></feColorMatrix>
        </filter>
    </defs>
    <g id="Page-1" stroke="none" stroke-width="1" fill="none" fill-rule="evenodd">
        <g id="My-Profile" transform="translate(-529.000000, -193.000000)">
            <g id="Group-6" transform="translate(528.232045, 193.000000)">
                <rect id="Rectangle" fill="url(#radialGradient-1)" x="0.767955466" y="0" width="453" height="204"></rect>
                <g id="KENO" fill-rule="nonzero" filter="url(#filter-3)">
                    <use fill="black" fill-opacity="1" filter="url(#filter-4)" xlink:href="#path-2"></use>
                    <use stroke="#8E0078" stroke-width="1" fill="#E50AD9" xlink:href="#path-2"></use>
                </g>
                <g id="Crypto" fill-rule="nonzero" filter="url(#filter-6)">
                    <use fill="black" fill-opacity="1" filter="url(#filter-7)" xlink:href="#path-5"></use>
                    <path d="M283.674122,74.8521739 L298.262287,74.8521739 L298.262287,71.0173913 C294.21297,69.6608628 290.879742,66.4261125 288.262501,61.3130435 C285.64526,56.1999744 284.336659,50.3826413 284.336659,43.8608696 C284.336659,36.0869177 286.040309,29.500027 289.447661,24.1 C292.855012,18.699973 296.9948,16 301.867148,16 C306.772417,16 310.928665,18.699973 314.336016,24.1 C317.743367,29.500027 319.447018,36.0869177 319.447018,43.8608696 C319.447018,50.3826413 318.138417,56.1999744 315.521176,61.3130435 C312.903935,66.4261125 309.570706,69.6608628 305.52139,71.0173913 L305.52139,74.8521739 L321.767955,74.8521739 L321.767955,79 L302.904162,79 L302.904162,67.4956522 L304.03994,67.2608696 C307.694201,66.5304311 310.739373,63.9087182 313.175547,59.3956522 C315.611721,54.8825861 316.82979,49.704377 316.82979,43.8608696 C316.82979,37.2347495 315.381276,31.6261099 312.484204,27.0347826 C309.587132,22.4434553 306.048149,20.1478261 301.867148,20.1478261 C297.719068,20.1478261 294.196545,22.4564987 291.299473,27.073913 C288.402401,31.6913274 286.953887,37.2869237 286.953887,43.8608696 C286.953887,49.704377 288.171956,54.8825861 290.60813,59.3956522 C293.044304,63.9087182 296.089475,66.5304311 299.743736,67.2608696 L300.879514,67.4956522 L300.879514,79 L283.674122,79 L270.834891,79 C269.122985,79 267.707391,78.1130523 266.588068,76.3391304 C265.468745,74.5652085 264.909092,72.3217527 264.909092,69.6086957 L264.909092,23.6695652 L277.748323,23.6695652 C278.43967,23.6695652 278.785338,23.1478313 278.785338,22.1043478 C278.785338,21.0608643 278.43967,20.5391304 277.748323,20.5391304 L250.094595,20.5391304 C249.403248,20.5391304 249.05758,21.0608643 249.05758,22.1043478 C249.05758,23.1478313 249.403248,23.6695652 250.094595,23.6695652 L262.933826,23.6695652 L262.933826,69.6086957 C262.933826,72.3739269 262.382403,74.630426 261.27954,76.3782609 C260.176678,78.1260957 258.752854,79 257.008027,79 L245.92596,79 L222.519054,79 L222.519054,51.373913 C222.519054,49.7043395 222.864722,48.334788 223.556069,47.2652174 C224.247416,46.1956468 225.119816,45.6608696 226.173297,45.6608696 L233.086729,45.6608696 C234.403579,45.6608696 235.769792,45.0869623 237.185406,43.9391304 C239.720344,41.8521635 240.987794,38.2261128 240.987794,33.0608696 C240.987794,27.8956263 239.720344,24.2695757 237.185406,22.1826087 C235.835634,21.086951 234.469422,20.5391304 233.086729,20.5391304 L220.543788,20.5391304 L220.543788,73.2869565 C220.543788,74.9565301 220.20635,76.3260816 219.531464,77.3956522 C218.927332,78.3530899 218.171525,78.8819908 217.264022,78.9823664 L217.264022,79 L202.153235,79 C201.099755,79 200.227354,78.4652227 199.536007,77.3956522 C198.844661,76.3260816 198.498993,74.9565301 198.498993,73.2869565 C198.498993,71.617383 198.844661,70.2478314 199.536007,69.1782609 C200.227354,68.1086903 201.099755,67.573913 202.153235,67.573913 L204.424792,67.573913 C207.716918,67.573913 210.004912,65.5652375 211.288842,61.5478261 C212.01311,59.2521624 212.375238,57.06088 212.375238,54.973913 L212.375238,22.1043478 C212.375238,21.0608643 212.02957,20.5391304 211.338224,20.5391304 C210.679798,20.5391304 210.35059,21.0608643 210.35059,22.1043478 L210.35059,40.4173913 C210.35059,43.1826225 209.799167,45.4260783 208.696305,47.1478261 C207.593442,48.8695738 206.169619,49.7304348 204.424792,49.7304348 C202.679964,49.7304348 201.256141,48.8695738 200.153278,47.1478261 C199.050416,45.4260783 198.498993,43.1826225 198.498993,40.4173913 L198.498993,22.1043478 C198.498993,21.0608643 198.169785,20.5391304 197.51136,20.5391304 C196.852934,20.5391304 196.523726,21.0608643 196.523726,22.1043478 L196.523726,73.2869565 C196.523726,74.9565301 196.186288,76.3260816 195.511402,77.3956522 C194.929321,78.3181441 194.206434,78.8428109 193.342724,78.9696628 L193.342724,79 L189.194665,79 L170.479017,49.4173913 L170.479017,45.6608696 L180.503493,45.6608696 C181.820344,45.6608696 183.186556,45.0869623 184.602171,43.9391304 C187.137109,41.8521635 188.404559,38.2261128 188.404559,33.0608696 C188.404559,27.8956263 187.137109,24.2695757 184.602171,22.1826087 C183.252399,21.086951 181.886187,20.5391304 180.503493,20.5391304 L167.960553,20.5391304 L167.960553,73.2869565 C167.960553,74.9565301 167.623115,76.3260816 166.948229,77.3956522 C166.355152,78.3355694 165.6159,78.8624902 164.730455,78.9764255 L164.730169,79 L163.446246,79 L163.022387,79 L163.022387,78.9720779 C162.130619,78.8513229 161.399502,78.3388945 160.829018,77.4347826 C160.170593,76.3912991 159.841385,75.0087043 159.841385,73.2869565 C159.841385,69.6869385 158.968984,67.1304423 157.224157,65.6173913 C156.26944,64.7826045 155.265356,64.3652174 154.211876,64.3652174 L147.19968,64.3652174 C143.512498,64.3652174 140.714232,62.3043684 138.804799,58.1826087 C137.389184,55.1043324 136.681387,51.6087152 136.681387,47.6956522 L136.681387,40.4173913 C136.681387,36.4521541 137.389184,32.9304502 138.804799,29.8521739 C140.681311,25.7304142 143.479577,23.6695652 147.19968,23.6695652 C150.886863,23.6695652 153.685129,25.7304142 155.594562,29.8521739 C156.977256,32.878276 157.685052,36.3738932 157.717974,40.3391304 C157.717974,41.4347881 158.063642,41.9826087 158.754988,41.9826087 C159.413414,41.9826087 159.742621,41.4608748 159.742621,40.4173913 C159.742621,32.226046 157.717994,26.4608863 153.668678,23.1217391 C151.561716,21.3999914 149.405406,20.5391304 147.19968,20.5391304 C144.993955,20.5391304 142.837645,21.3999914 140.730683,23.1217391 C136.681367,26.4087121 134.65674,32.1738718 134.65674,40.4173913 L134.65674,47.6956522 C134.65674,55.9391717 136.681367,61.7043314 140.730683,64.9913043 C142.837645,66.7130521 144.993955,67.573913 147.19968,67.573913 L154.211876,67.573913 C155.298278,67.573913 156.170678,68.095647 156.829104,69.1391304 C157.487529,70.1826139 157.816737,71.5652088 157.816737,73.2869565 C157.816737,74.9043559 157.471069,76.2608641 156.779722,77.3565217 C156.088375,78.4521794 155.232435,79 154.211876,79 L129.767955,79 L129.767955,74.8521739 L154.211876,74.8521739 C154.903222,74.8521739 155.248891,74.33044 155.248891,73.2869565 C155.248891,72.243473 154.903222,71.7217391 154.211876,71.7217391 L147.19968,71.7217391 C144.730585,71.7217391 142.195686,70.6782713 139.594905,68.5913043 C134.590872,64.573893 132.088893,57.6087452 132.088893,47.6956522 L132.088893,40.4173913 C132.088893,30.5042983 134.590872,23.5391505 139.594905,19.5217391 C142.195686,17.4347722 144.730585,16.3913043 147.19968,16.3913043 C149.701697,16.3913043 152.253057,17.4347722 154.853837,19.5217391 C159.85787,23.5391505 162.359849,30.5042983 162.359849,40.4173913 C162.359849,42.0347907 162.014181,43.3912989 161.322834,44.4869565 C160.631488,45.5826142 159.775548,46.1304348 158.754988,46.1304348 C157.701508,46.1304348 156.845568,45.5956575 156.187142,44.526087 C155.528717,43.4565164 155.183049,42.0869649 155.150127,40.4173913 C155.117206,38.226076 154.755078,36.0608803 154.063731,33.9217391 C152.74688,29.8521536 150.458886,27.8173913 147.19968,27.8173913 C143.940475,27.8173913 141.652481,29.8521536 140.33563,33.9217391 C139.644283,36.0608803 139.298615,38.226076 139.298615,40.4173913 L139.298615,47.6956522 C139.298615,49.8869675 139.644283,52.0521632 140.33563,54.1913043 C141.652481,58.2087157 143.940475,60.2173913 147.19968,60.2173913 L154.211876,60.2173913 C156.154231,60.2173913 157.882571,61.104339 159.39695,62.8782609 C161.438069,65.2260987 162.458613,68.6956292 162.458613,73.2869565 C162.458613,74.2782658 162.78782,74.7999997 163.446246,74.8521739 L163.884392,74.8778917 L164.30631,74.8521739 C164.997657,74.7999997 165.343325,74.2782658 165.343325,73.2869565 L165.343325,16.3913043 L180.503493,16.3913043 C182.972589,16.3913043 185.178281,17.5130323 187.120636,19.7565217 C189.721416,22.7826238 191.021786,27.2173621 191.021786,33.0608696 C191.021786,38.904377 189.721416,43.3391153 187.120636,46.3652174 C185.178281,48.6087069 182.972589,49.7304348 180.503493,49.7304348 L174.380168,49.7304348 L190.23168,74.8521739 L192.869484,74.8521739 C193.56083,74.7999997 193.906499,74.2782658 193.906499,73.2869565 L193.906499,22.1043478 C193.906499,20.4347743 194.243936,19.0652227 194.918823,17.9956522 C195.593709,16.9260816 196.457879,16.3913043 197.51136,16.3913043 C198.56484,16.3913043 199.42901,16.9260816 200.103897,17.9956522 C200.778783,19.0652227 201.11622,20.4347743 201.11622,22.1043478 L201.11622,40.3391304 C201.11622,41.9565298 201.412507,43.2478213 202.00509,44.2130435 C202.597673,45.1782657 203.404232,45.6608696 204.424792,45.6608696 C205.41243,45.6608696 206.210758,45.1782657 206.819802,44.2130435 C207.428845,43.2478213 207.733363,41.9826165 207.733363,40.4173913 L207.733363,22.1043478 C207.733363,20.4869484 208.079031,19.1304403 208.770377,18.0347826 C209.461724,16.939125 210.317664,16.3913043 211.338224,16.3913043 C212.391704,16.3913043 213.255875,16.9260816 213.930761,17.9956522 C214.605647,19.0652227 214.943085,20.4347743 214.943085,22.1043478 L214.943085,54.973913 C214.943085,58.9391503 214.235288,62.4608542 212.819673,65.5391304 C210.943161,69.6608902 208.144895,71.7217391 204.424792,71.7217391 L202.153235,71.7217391 C201.461889,71.7217391 201.11622,72.243473 201.11622,73.2869565 C201.11622,74.33044 201.461889,74.8521739 202.153235,74.8521739 L216.889545,74.8521739 C217.580892,74.7999997 217.92656,74.2782658 217.92656,73.2869565 L217.92656,16.3913043 L233.086729,16.3913043 C235.555824,16.3913043 237.761516,17.5130323 239.703871,19.7565217 C242.304651,22.7826238 243.605022,27.2173621 243.605022,33.0608696 C243.605022,38.904377 242.304651,43.3391153 239.703871,46.3652174 C237.761516,48.6087069 235.555824,49.7304348 233.086729,49.7304348 L226.173297,49.7304348 C225.48195,49.7304348 225.136282,50.2782554 225.136282,51.373913 L225.136282,74.8521739 L245.92596,74.8521739 L257.008027,74.8521739 C259.213752,74.8521739 260.316598,73.1043653 260.316598,69.6086957 L260.316598,27.8173913 L250.094595,27.8173913 C249.041114,27.8173913 248.176944,27.282614 247.502058,26.2130435 C246.827172,25.1434729 246.489734,23.7739214 246.489734,22.1043478 C246.489734,20.3826001 246.818942,19.0000052 247.477367,17.9565217 C248.135792,16.9130383 249.008193,16.3913043 250.094595,16.3913043 L277.748323,16.3913043 C278.834725,16.3913043 279.707125,16.9130383 280.365551,17.9565217 C281.023976,19.0000052 281.353184,20.3826001 281.353184,22.1043478 C281.353184,23.8260956 281.023976,25.2086904 280.365551,26.2521739 C279.707125,27.2956574 278.834725,27.8173913 277.748323,27.8173913 L267.52632,27.8173913 L267.52632,69.6086957 C267.52632,73.1043653 268.629166,74.8521739 270.834891,74.8521739 L283.674122,74.8521739 Z" fill="#F8E71C" fill-rule="evenodd"></path>
                </g>
                <path d="M166.767955,179.248619 L166.767955,172.81768 C166.767955,172.430939 167.062735,172.132597 167.444856,172.132597 L169.781253,172.132597 C171.571763,172.132597 172.685373,173.160221 172.685373,174.718232 L172.685373,174.740331 C172.685373,176.475138 171.309737,177.381215 169.628405,177.381215 L168.110838,177.381215 L168.110838,179.248619 C168.110838,179.624309 167.816059,179.922652 167.444856,179.922652 C167.062735,179.922652 166.767955,179.624309 166.767955,179.248619 Z M168.110838,176.154696 L169.672076,176.154696 C170.687426,176.154696 171.320655,175.58011 171.320655,174.773481 L171.320655,174.751381 C171.320655,173.845304 170.676508,173.370166 169.672076,173.370166 L168.110838,173.370166 L168.110838,176.154696 Z M178.028646,180 C175.681331,180 174.043669,178.198895 174.043669,176.022099 L174.043669,176 C174.043669,173.823204 175.703166,172 178.050481,172 C180.397796,172 182.035458,173.801105 182.035458,175.977901 L182.035458,176 C182.035458,178.176796 180.375961,180 178.028646,180 Z M178.050481,178.740331 C179.568048,178.740331 180.627069,177.524862 180.627069,176.022099 L180.627069,176 C180.627069,174.497238 179.546212,173.248619 178.028646,173.248619 C176.511079,173.248619 175.452058,174.475138 175.452058,175.977901 L175.452058,176 C175.452058,177.502762 176.532915,178.740331 178.050481,178.740331 Z M185.500879,179.414365 L183.240905,173.005525 C183.208152,172.928177 183.186317,172.828729 183.186317,172.740331 C183.186317,172.364641 183.502931,172.077348 183.874135,172.077348 C184.201667,172.077348 184.452775,172.287293 184.540117,172.574586 L186.297874,177.889503 L188.022878,172.596685 C188.132055,172.276243 188.361328,172.055249 188.699778,172.055249 L188.798037,172.055249 C189.136487,172.055249 189.376678,172.276243 189.474938,172.596685 L191.199941,177.889503 L192.957698,172.563536 C193.055958,172.287293 193.28523,172.077348 193.612763,172.077348 C193.973048,172.077348 194.278745,172.364641 194.278745,172.729282 C194.278745,172.81768 194.245992,172.928177 194.213239,173.005525 L191.953266,179.414365 C191.83317,179.756906 191.582062,179.977901 191.25453,179.977901 L191.123517,179.977901 C190.795985,179.977901 190.555794,179.767956 190.435699,179.414365 L188.732531,174.364641 L187.029363,179.414365 C186.909268,179.767956 186.658159,179.977901 186.330627,179.977901 L186.199614,179.977901 C185.872082,179.977901 185.631891,179.767956 185.500879,179.414365 Z M196.70698,179.867403 C196.324859,179.867403 196.03008,179.569061 196.03008,179.18232 L196.03008,172.81768 C196.03008,172.430939 196.324859,172.132597 196.70698,172.132597 L201.150502,172.132597 C201.478034,172.132597 201.750978,172.40884 201.750978,172.740331 C201.750978,173.082873 201.478034,173.348066 201.150502,173.348066 L197.372962,173.348066 L197.372962,175.359116 L200.659204,175.359116 C200.986736,175.359116 201.25968,175.635359 201.25968,175.977901 C201.25968,176.309392 200.986736,176.574586 200.659204,176.574586 L197.372962,176.574586 L197.372962,178.651934 L201.205091,178.651934 C201.532623,178.651934 201.805567,178.928177 201.805567,179.259669 C201.805567,179.60221 201.532623,179.867403 201.205091,179.867403 L196.70698,179.867403 Z M203.666079,179.248619 L203.666079,172.81768 C203.666079,172.430939 203.960858,172.132597 204.342979,172.132597 L207.072415,172.132597 C208.033177,172.132597 208.786501,172.41989 209.2778,172.906077 C209.681756,173.325967 209.911029,173.900552 209.911029,174.574586 L209.911029,174.596685 C209.911029,175.834254 209.201375,176.585635 208.175107,176.906077 L209.638085,178.773481 C209.769098,178.939227 209.85644,179.082873 209.85644,179.292818 C209.85644,179.668508 209.539825,179.922652 209.212293,179.922652 C208.906596,179.922652 208.710077,179.779006 208.557228,179.569061 L206.701212,177.171271 L205.008961,177.171271 L205.008961,179.248619 C205.008961,179.624309 204.714182,179.922652 204.342979,179.922652 C203.960858,179.922652 203.666079,179.624309 203.666079,179.248619 Z M205.008961,175.966851 L206.974155,175.966851 C207.934917,175.966851 208.546311,175.458564 208.546311,174.674033 L208.546311,174.651934 C208.546311,173.823204 207.956753,173.370166 206.963238,173.370166 L205.008961,173.370166 L205.008961,175.966851 Z M212.557618,179.867403 C212.175497,179.867403 211.880718,179.569061 211.880718,179.18232 L211.880718,172.81768 C211.880718,172.430939 212.175497,172.132597 212.557618,172.132597 L217.001141,172.132597 C217.328673,172.132597 217.601617,172.40884 217.601617,172.740331 C217.601617,173.082873 217.328673,173.348066 217.001141,173.348066 L213.223601,173.348066 L213.223601,175.359116 L216.509842,175.359116 C216.837374,175.359116 217.110318,175.635359 217.110318,175.977901 C217.110318,176.309392 216.837374,176.574586 216.509842,176.574586 L213.223601,176.574586 L213.223601,178.651934 L217.055729,178.651934 C217.383262,178.651934 217.656205,178.928177 217.656205,179.259669 C217.656205,179.60221 217.383262,179.867403 217.055729,179.867403 L212.557618,179.867403 Z M219.516717,179.18232 L219.516717,172.81768 C219.516717,172.430939 219.811496,172.132597 220.193617,172.132597 L222.366249,172.132597 C224.768153,172.132597 226.42765,173.801105 226.42765,175.977901 L226.42765,176 C226.42765,178.176796 224.768153,179.867403 222.366249,179.867403 L220.193617,179.867403 C219.811496,179.867403 219.516717,179.569061 219.516717,179.18232 Z M220.8596,178.629834 L222.366249,178.629834 C223.971157,178.629834 225.019261,177.535912 225.019261,176.022099 L225.019261,176 C225.019261,174.486188 223.971157,173.370166 222.366249,173.370166 L220.8596,173.370166 L220.8596,178.629834 Z M231.971937,179.18232 L231.971937,172.81768 C231.971937,172.430939 232.266716,172.132597 232.648837,172.132597 L235.400109,172.132597 C236.273529,172.132597 236.961347,172.375691 237.398056,172.81768 C237.736506,173.160221 237.91119,173.58011 237.91119,174.099448 L237.91119,174.121547 C237.91119,175.049724 237.387139,175.546961 236.819416,175.845304 C237.714671,176.154696 238.336982,176.674033 238.336982,177.723757 L238.336982,177.745856 C238.336982,179.127072 237.212455,179.867403 235.509286,179.867403 L232.648837,179.867403 C232.266716,179.867403 231.971937,179.569061 231.971937,179.18232 Z M233.292984,175.392265 L235.127165,175.392265 C235.989667,175.392265 236.568308,175.049724 236.568308,174.342541 L236.568308,174.320442 C236.568308,173.712707 236.087927,173.337017 235.225425,173.337017 L233.292984,173.337017 L233.292984,175.392265 Z M233.292984,178.662983 L235.520204,178.662983 C236.437295,178.662983 236.9941,178.298343 236.9941,177.60221 L236.9941,177.58011 C236.9941,176.928177 236.480966,176.541436 235.421945,176.541436 L233.292984,176.541436 L233.292984,178.662983 Z M242.031676,179.248619 L242.031676,176.861878 L239.400499,173.20442 C239.313157,173.071823 239.247651,172.917127 239.247651,172.729282 C239.247651,172.364641 239.54243,172.077348 239.924551,172.077348 C240.21933,172.077348 240.415849,172.243094 240.579615,172.486188 L242.708576,175.59116 L244.870289,172.475138 C245.034055,172.232044 245.230575,172.066298 245.514436,172.066298 C245.907475,172.066298 246.169501,172.364641 246.169501,172.729282 C246.169501,172.917127 246.082159,173.082873 245.983899,173.21547 L243.374558,176.828729 L243.374558,179.248619 C243.374558,179.624309 243.079779,179.922652 242.697658,179.922652 C242.326455,179.922652 242.031676,179.624309 242.031676,179.248619 Z M255.021865,180 C252.630879,180 251.058724,178.276243 251.058724,176.022099 L251.058724,176 C251.058724,173.834254 252.696385,172 255.000029,172 C256.146393,172 256.910635,172.276243 257.60937,172.78453 C257.740383,172.883978 257.882314,173.071823 257.882314,173.337017 C257.882314,173.701657 257.587535,174.01105 257.216332,174.01105 C257.041648,174.01105 256.910635,173.933702 256.801457,173.856354 C256.310159,173.491713 255.775189,173.248619 254.945441,173.248619 C253.537052,173.248619 252.467113,174.497238 252.467113,175.977901 L252.467113,176 C252.467113,177.59116 253.504298,178.762431 255.065536,178.762431 C255.786107,178.762431 256.441172,178.530387 256.910635,178.176796 L256.910635,176.729282 L255.403986,176.729282 C255.076454,176.729282 254.80351,176.475138 254.80351,176.143646 C254.80351,175.812155 255.076454,175.546961 255.403986,175.546961 L257.532946,175.546961 C257.915067,175.546961 258.209846,175.845304 258.209846,176.232044 L258.209846,178.298343 C258.209846,178.685083 258.056998,178.961326 257.740383,179.160221 C257.085319,179.60221 256.168228,180 255.021865,180 Z M259.753744,179.292818 C259.753744,179.19337 259.786497,179.093923 259.841086,178.983425 L262.679699,172.574586 C262.832548,172.232044 263.105491,172.022099 263.487612,172.022099 L263.553119,172.022099 C263.93524,172.022099 264.197266,172.232044 264.350114,172.574586 L267.188728,178.983425 C267.243317,179.082873 267.265152,179.18232 267.265152,179.270718 C267.265152,179.635359 266.992209,179.922652 266.631923,179.922652 C266.315308,179.922652 266.096953,179.734807 265.976858,179.447514 L265.354547,178 L261.642514,178 L260.998367,179.491713 C260.889189,179.767956 260.659917,179.922652 260.376055,179.922652 C260.026687,179.922652 259.753744,179.646409 259.753744,179.292818 Z M262.155648,176.79558 L264.841413,176.79558 L263.49853,173.668508 L262.155648,176.79558 Z M269.038322,179.259669 L269.038322,172.773481 C269.038322,172.39779 269.333101,172.088398 269.715222,172.088398 L269.857153,172.088398 C270.151932,172.088398 270.348452,172.243094 270.479465,172.453039 L272.794026,176.121547 L275.119506,172.441989 C275.261437,172.209945 275.457956,172.088398 275.7309,172.088398 L275.87283,172.088398 C276.254951,172.088398 276.549731,172.39779 276.549731,172.773481 L276.549731,179.248619 C276.549731,179.624309 276.254951,179.922652 275.87283,179.922652 C275.512545,179.922652 275.206848,179.61326 275.206848,179.248619 L275.206848,174.607735 L273.339914,177.447514 C273.197983,177.668508 273.023299,177.801105 272.772191,177.801105 C272.532001,177.801105 272.357317,177.668508 272.215386,177.447514 L270.359369,174.629834 L270.359369,179.259669 C270.359369,179.635359 270.06459,179.922652 269.693387,179.922652 C269.322184,179.922652 269.038322,179.635359 269.038322,179.259669 Z M279.512935,179.867403 C279.130814,179.867403 278.836035,179.569061 278.836035,179.18232 L278.836035,172.81768 C278.836035,172.430939 279.130814,172.132597 279.512935,172.132597 L283.956457,172.132597 C284.283989,172.132597 284.556933,172.40884 284.556933,172.740331 C284.556933,173.082873 284.283989,173.348066 283.956457,173.348066 L280.178917,173.348066 L280.178917,175.359116 L283.465158,175.359116 C283.792691,175.359116 284.065634,175.635359 284.065634,175.977901 C284.065634,176.309392 283.792691,176.574586 283.465158,176.574586 L280.178917,176.574586 L280.178917,178.651934 L284.011046,178.651934 C284.338578,178.651934 284.611522,178.928177 284.611522,179.259669 C284.611522,179.60221 284.338578,179.867403 284.011046,179.867403 L279.512935,179.867403 Z M288.262544,179.414365 L286.002571,173.005525 C285.969817,172.928177 285.947982,172.828729 285.947982,172.740331 C285.947982,172.364641 286.264597,172.077348 286.6358,172.077348 C286.963332,172.077348 287.21444,172.287293 287.301782,172.574586 L289.059539,177.889503 L290.784543,172.596685 C290.89372,172.276243 291.122993,172.055249 291.461443,172.055249 L291.559703,172.055249 C291.898153,172.055249 292.138343,172.276243 292.236603,172.596685 L293.961607,177.889503 L295.719363,172.563536 C295.817623,172.287293 296.046896,172.077348 296.374428,172.077348 C296.734714,172.077348 297.040411,172.364641 297.040411,172.729282 C297.040411,172.81768 297.007657,172.928177 296.974904,173.005525 L294.714931,179.414365 C294.594836,179.756906 294.343728,179.977901 294.016195,179.977901 L293.885182,179.977901 C293.55765,179.977901 293.31746,179.767956 293.197364,179.414365 L291.494196,174.364641 L289.791028,179.414365 C289.670933,179.767956 289.419825,179.977901 289.092292,179.977901 L288.961279,179.977901 C288.633747,179.977901 288.393557,179.767956 288.262544,179.414365 Z M302.165328,180 C299.818013,180 298.180351,178.198895 298.180351,176.022099 L298.180351,176 C298.180351,173.823204 299.839849,172 302.187164,172 C304.534479,172 306.172141,173.801105 306.172141,175.977901 L306.172141,176 C306.172141,178.176796 304.512643,180 302.165328,180 Z M302.187164,178.740331 C303.70473,178.740331 304.763751,177.524862 304.763751,176.022099 L304.763751,176 C304.763751,174.497238 303.682895,173.248619 302.165328,173.248619 C300.647762,173.248619 299.588741,174.475138 299.588741,175.977901 L299.588741,176 C299.588741,177.502762 300.669597,178.740331 302.187164,178.740331 Z M308.119995,179.248619 L308.119995,172.81768 C308.119995,172.430939 308.414774,172.132597 308.796895,172.132597 L311.526331,172.132597 C312.487092,172.132597 313.240417,172.41989 313.731715,172.906077 C314.135672,173.325967 314.364945,173.900552 314.364945,174.574586 L314.364945,174.596685 C314.364945,175.834254 313.655291,176.585635 312.629023,176.906077 L314.092001,178.773481 C314.223014,178.939227 314.310356,179.082873 314.310356,179.292818 C314.310356,179.668508 313.993741,179.922652 313.666209,179.922652 C313.360512,179.922652 313.163993,179.779006 313.011144,179.569061 L311.155128,177.171271 L309.462877,177.171271 L309.462877,179.248619 C309.462877,179.624309 309.168098,179.922652 308.796895,179.922652 C308.414774,179.922652 308.119995,179.624309 308.119995,179.248619 Z M309.462877,175.966851 L311.428071,175.966851 C312.388833,175.966851 313.000226,175.458564 313.000226,174.674033 L313.000226,174.651934 C313.000226,173.823204 312.410668,173.370166 311.417153,173.370166 L309.462877,173.370166 L309.462877,175.966851 Z M316.334634,179.248619 L316.334634,172.751381 C316.334634,172.375691 316.629413,172.077348 317.011534,172.077348 C317.382738,172.077348 317.677517,172.375691 317.677517,172.751381 L317.677517,176.022099 L321.302208,172.331492 C321.455056,172.165746 321.618822,172.077348 321.859013,172.077348 C322.230216,172.077348 322.481324,172.375691 322.481324,172.707182 C322.481324,172.917127 322.393982,173.071823 322.241134,173.21547 L319.861066,175.535912 L322.437653,178.773481 C322.546831,178.917127 322.623255,179.049724 322.623255,179.259669 C322.623255,179.635359 322.328476,179.922652 321.946355,179.922652 C321.684329,179.922652 321.520563,179.790055 321.378632,179.60221 L318.92214,176.430939 L317.677517,177.646409 L317.677517,179.248619 C317.677517,179.624309 317.382738,179.922652 317.011534,179.922652 C316.629413,179.922652 316.334634,179.624309 316.334634,179.248619 Z M327.038519,179.977901 C326.001334,179.977901 325.018737,179.646409 324.167152,179.005525 C324.014304,178.895028 323.905127,178.707182 323.905127,178.486188 C323.905127,178.132597 324.188988,177.856354 324.538356,177.856354 C324.723957,177.856354 324.844053,177.911602 324.931395,177.977901 C325.564624,178.486188 326.241524,178.773481 327.071273,178.773481 C327.901021,178.773481 328.425073,178.375691 328.425073,177.801105 L328.425073,177.779006 C328.425073,177.226519 328.119376,176.928177 326.700069,176.596685 C325.073325,176.198895 324.156235,175.712707 324.156235,174.287293 L324.156235,174.265193 C324.156235,172.939227 325.248009,172.022099 326.765576,172.022099 C327.726337,172.022099 328.501497,172.276243 329.189315,172.740331 C329.342163,172.828729 329.484094,173.016575 329.484094,173.281768 C329.484094,173.635359 329.200233,173.911602 328.850865,173.911602 C328.719852,173.911602 328.610675,173.878453 328.501497,173.812155 C327.911939,173.425414 327.344216,173.226519 326.74374,173.226519 C325.957663,173.226519 325.499117,173.635359 325.499117,174.143646 L325.499117,174.165746 C325.499117,174.762431 325.848485,175.027624 327.322381,175.381215 C328.938207,175.779006 329.767955,176.364641 329.767955,177.646409 L329.767955,177.668508 C329.767955,179.116022 328.643428,179.977901 327.038519,179.977901 Z" id="POWEREDBYGAMEWORKS" fill="#FFFFFF" fill-rule="nonzero"></path>
            </g>
        </g>
    </g>
</svg>