<?xml version="1.0" encoding="UTF-8"?>
<svg width="222px" height="47px" viewBox="0 0 222 47" version="1.1" xmlns="http://www.w3.org/2000/svg" xmlns:xlink="http://www.w3.org/1999/xlink">
    <!-- Generator: Sketch 59.1 (86144) - https://sketch.com -->
    <title>Group 2</title>
    <desc>Created with Sketch.</desc>
    <g id="Page-1" stroke="none" stroke-width="1" fill="none" fill-rule="evenodd">
        <g id="Artboard" transform="translate(-10.000000, -156.000000)" fill-rule="nonzero">
            <g id="Group-2" transform="translate(10.000000, 155.000000)">
                <g id="Group" transform="translate(-0.000000, 0.000000)">
                    <polygon id="Rectangle-2-Copy" fill="#FF530D" transform="translate(30.245347, 30.317196) rotate(45.000000) translate(-30.245347, -30.317196) " points="38.5492336 13.7094224 38.5492336 46.9249701 27.4773844 46.9249701 27.4773844 35.8896213 21.9414598 30.3171963 27.4773844 24.7676292"></polygon>
                    <polygon id="Rectangle-2-Copy-2" fill="#FF0000" transform="translate(16.535925, 32.274441) rotate(-45.000000) translate(-16.535925, -32.274441) " points="11.0000003 15.666667 22.0718496 15.666667 22.0718496 48.8822147 11.0000003 48.8822147"></polygon>
                    <polygon id="Rectangle-2" fill="#E80C7A" transform="translate(16.535925, 16.607775) rotate(45.000000) translate(-16.535925, -16.607775) " points="11 7.3963372e-07 22.0718493 7.3963372e-07 22.0718493 33.2155484 11 33.2155484"></polygon>
                    <polygon id="Rectangle-2-Copy-3" fill="#FF0DFF" transform="translate(32.202591, 16.607774) rotate(135.000000) translate(-32.202591, -16.607774) " points="26.6666668 0 37.738516 11.0696337 37.738516 33.2155477 26.6666668 33.2155477"></polygon>
                </g>
                <path d="M64.7775776,19.6298151 C62.1775776,19.6298151 60.2975776,17.6698151 60.2975776,14.9498151 C60.2975776,12.2298151 62.2175776,10.2698151 64.8375776,10.2698151 C66.8175776,10.2698151 68.0175776,11.2498151 68.5775776,12.5898151 L71.4975776,12.5898151 C70.8575776,9.6898151 68.1175776,7.7098151 64.7775776,7.7098151 C60.6375776,7.7098151 57.4375776,10.8898151 57.4375776,14.9498151 C57.4375776,19.0098151 60.5975776,22.1898151 64.7375776,22.1898151 C68.4375776,22.1898151 71.7775776,19.8098151 71.7775776,15.2498151 C71.7775776,14.8898151 71.7575776,14.4898151 71.6775776,14.0498151 L64.7375776,14.0498151 L64.7375776,16.3898151 L68.9575776,16.3898151 C68.7375776,18.2698151 67.0775776,19.6298151 64.7775776,19.6298151 Z M87.3201746,21.9498151 L90.1801746,21.9498151 L84.1801746,7.9298151 L81.5401746,7.9298151 L75.5201746,21.9498151 L78.3601746,21.9498151 L79.6401746,18.8098151 L86.0401746,18.8098151 L87.3201746,21.9498151 Z M82.8401746,10.9698151 L85.0001746,16.2898151 L80.6601746,16.2898151 L82.8401746,10.9698151 Z M101.602772,19.4498151 L103.662772,19.4498151 L107.602772,12.5898151 L107.602772,21.9498151 L110.362772,21.9498151 L110.362772,7.9298151 L107.702772,7.9298151 L102.662772,16.5898151 L97.6027716,7.9298151 L94.8827716,7.9298151 L94.8827716,21.9498151 L97.6227716,21.9498151 L97.6227716,12.5298151 L101.602772,19.4498151 Z M126.665369,21.9498151 L126.665369,19.4698151 L119.045369,19.4698151 L119.045369,16.1498151 L126.065369,16.1498151 L126.065369,13.6698151 L119.045369,13.6698151 L119.045369,10.4298151 L126.565369,10.4298151 L126.565369,7.9498151 L116.265369,7.9498151 L116.265369,21.9498151 L126.665369,21.9498151 Z M143.247966,7.9498151 L140.587966,7.9498151 L137.307966,17.9898151 L134.087966,7.9498151 L131.147966,7.9498151 L135.867966,21.9698151 L138.667966,21.9698151 L141.867966,11.8898151 L145.047966,21.9698151 L147.887966,21.9698151 L152.607966,7.9498151 L149.807966,7.9498151 L146.487966,18.0498151 L143.247966,7.9498151 Z M163.950563,7.7098151 C159.830563,7.7098151 156.590563,10.8898151 156.590563,14.9498151 C156.590563,19.0098151 159.830563,22.1898151 163.950563,22.1898151 C168.050563,22.1898151 171.290563,19.0098151 171.290563,14.9498151 C171.290563,10.8898151 168.050563,7.7098151 163.950563,7.7098151 Z M163.950563,19.5898151 C161.450563,19.5898151 159.450563,17.6498151 159.450563,14.9498151 C159.450563,12.2498151 161.450563,10.3098151 163.950563,10.3098151 C166.430563,10.3098151 168.430563,12.2498151 168.430563,14.9498151 C168.430563,17.6498151 166.430563,19.5898151 163.950563,19.5898151 Z M179.59316,17.2498151 L181.79316,17.2498151 L185.41316,21.9498151 L188.53316,21.9498151 L184.75316,17.0498151 C187.15316,16.4898151 188.45316,14.7898151 188.45316,12.5898151 C188.45316,9.8698151 186.61316,7.9498151 183.11316,7.9498151 L176.81316,7.9498151 L176.81316,21.9498151 L179.59316,21.9498151 L179.59316,17.2498151 Z M179.59316,14.7898151 L179.59316,10.4098151 L182.85316,10.4098151 C184.67316,10.4098151 185.63316,11.2098151 185.63316,12.5898151 C185.63316,14.0098151 184.67316,14.7898151 182.85316,14.7898151 L179.59316,14.7898151 Z M206.295757,7.9498151 L202.895757,7.9498151 L196.655757,14.6098151 L196.655757,7.9498151 L193.875757,7.9498151 L193.875757,21.9498151 L196.655757,21.9498151 L196.655757,18.1698151 L198.635757,16.0698151 L203.235757,21.9498151 L206.595757,21.9498151 L200.455757,14.1498151 L206.295757,7.9498151 Z M216.138354,19.7298151 C214.338354,19.7298151 213.278354,19.1098151 213.138354,18.0098151 L210.438354,18.0098151 C210.658354,20.6098151 212.758354,22.1698151 216.118354,22.1698151 C219.378354,22.1698151 221.578354,20.7098151 221.578354,17.8498151 C221.578354,15.7698151 220.418354,14.4698151 217.578354,13.9098151 L215.998354,13.5898151 C214.278354,13.2698151 213.478354,12.8298151 213.478354,11.8098151 C213.478354,10.7298151 214.398354,10.1698151 215.898354,10.1698151 C217.338354,10.1698151 218.298354,10.7098151 218.478354,11.6698151 L221.158354,11.6698151 C220.918354,9.3098151 219.098354,7.7298151 215.878354,7.7298151 C212.558354,7.7298151 210.698354,9.3298151 210.698354,11.8098151 C210.698354,13.8807828 211.934566,15.239992 214.624506,15.8330637 L216.458354,16.2098151 C218.158354,16.5298151 218.778354,17.0898151 218.778354,18.0098151 C218.778354,19.0898151 217.758354,19.7298151 216.138354,19.7298151 Z M75.4024656,28.9498151 L65.6954656,28.9498151 L65.6954656,31.0918151 L69.3674656,31.0918151 L69.3674656,40.8498151 L71.7304656,40.8498151 L71.7304656,31.0918151 L75.4024656,31.0918151 L75.4024656,28.9498151 Z M84.6234656,28.7458151 C81.1214656,28.7458151 78.3674656,31.4488151 78.3674656,34.8998151 C78.3674656,38.3508151 81.1214656,41.0538151 84.6234656,41.0538151 C88.1084656,41.0538151 90.8624656,38.3508151 90.8624656,34.8998151 C90.8624656,31.4488151 88.1084656,28.7458151 84.6234656,28.7458151 Z M84.6234656,38.8438151 C82.4984656,38.8438151 80.7984656,37.1948151 80.7984656,34.8998151 C80.7984656,32.6048151 82.4984656,30.9558151 84.6234656,30.9558151 C86.7314656,30.9558151 88.4314656,32.6048151 88.4314656,34.8998151 C88.4314656,37.1948151 86.7314656,38.8438151 84.6234656,38.8438151 Z M105.761466,28.9498151 L102.871466,28.9498151 L97.5674656,34.6108151 L97.5674656,28.9498151 L95.2044656,28.9498151 L95.2044656,40.8498151 L97.5674656,40.8498151 L97.5674656,37.6368151 L99.2504656,35.8518151 L103.160466,40.8498151 L106.016466,40.8498151 L100.797466,34.2198151 L105.761466,28.9498151 Z M118.331466,40.8498151 L118.331466,38.7418151 L111.854466,38.7418151 L111.854466,35.9198151 L117.821466,35.9198151 L117.821466,33.8118151 L111.854466,33.8118151 L111.854466,31.0578151 L118.246466,31.0578151 L118.246466,28.9498151 L109.491466,28.9498151 L109.491466,40.8498151 L118.331466,40.8498151 Z M122.656466,28.9328151 L122.656466,40.8498151 L124.985466,40.8498151 L124.985466,32.6728151 L131.088466,40.8668151 L133.298466,40.8668151 L133.298466,28.9498151 L130.986466,28.9498151 L130.986466,37.1268151 L124.866466,28.9328151 L122.656466,28.9328151 Z M154.545466,34.8998151 C154.545466,31.5508151 151.961466,28.9498151 148.357466,28.9498151 L143.869466,28.9498151 L143.869466,40.8498151 L148.357466,40.8498151 C151.961466,40.8498151 154.545466,38.2488151 154.545466,34.8998151 Z M146.232466,38.7078151 L146.232466,31.0918151 L148.272466,31.0918151 C150.601466,31.0918151 152.131466,32.7068151 152.131466,34.8998151 C152.131466,37.0928151 150.601466,38.7078151 148.272466,38.7078151 L146.232466,38.7078151 Z M167.727466,40.8498151 L167.727466,38.7418151 L161.250466,38.7418151 L161.250466,35.9198151 L167.217466,35.9198151 L167.217466,33.8118151 L161.250466,33.8118151 L161.250466,31.0578151 L167.642466,31.0578151 L167.642466,28.9498151 L158.887466,28.9498151 L158.887466,40.8498151 L167.727466,40.8498151 Z M174.415466,34.8488151 L174.415466,31.0578151 L177.084466,31.0578151 C178.597466,31.0578151 179.413466,31.7208151 179.413466,32.9448151 C179.413466,34.2028151 178.597466,34.8488151 177.084466,34.8488151 L174.415466,34.8488151 Z M174.415466,36.9568151 L177.322466,36.9568151 C180.246466,36.9398151 181.827466,35.3248151 181.827466,32.9448151 C181.827466,30.5818151 180.246466,28.9498151 177.322466,28.9498151 L172.052466,28.9498151 L172.052466,40.8498151 L174.415466,40.8498151 L174.415466,36.9568151 Z M191.949466,28.7458151 C188.447466,28.7458151 185.693466,31.4488151 185.693466,34.8998151 C185.693466,38.3508151 188.447466,41.0538151 191.949466,41.0538151 C195.434466,41.0538151 198.188466,38.3508151 198.188466,34.8998151 C198.188466,31.4488151 195.434466,28.7458151 191.949466,28.7458151 Z M191.949466,38.8438151 C189.824466,38.8438151 188.124466,37.1948151 188.124466,34.8998151 C188.124466,32.6048151 189.824466,30.9558151 191.949466,30.9558151 C194.057466,30.9558151 195.757466,32.6048151 195.757466,34.8998151 C195.757466,37.1948151 194.057466,38.8438151 191.949466,38.8438151 Z M210.860466,28.9498151 L210.860466,31.0918151 L207.188466,31.0918151 L207.188466,40.8498151 L204.825466,40.8498151 L204.825466,31.0918151 L201.153466,31.0918151 L201.153466,28.9498151 L210.860466,28.9498151 Z" id="GAMEWORKSTOKENDEPOT" fill="#F8D253"></path>
            </g>
        </g>
    </g>
</svg>